<svg width="3" height="18" viewBox="0 0 3 18" fill="none" xmlns="http://www.w3.org/2000/svg">
<path d="M0 2.20001C0 3.02701 0.673 3.70001 1.5 3.70001C2.327 3.70001 3 3.02701 3 2.20001C3 1.37301 2.327 0.700012 1.5 0.700012C0.673 0.700012 0 1.37301 0 2.20001Z" fill="black"/>
<path d="M0 9.20001C0 10.027 0.673 10.7 1.5 10.7C2.327 10.7 3 10.027 3 9.20001C3 8.37301 2.327 7.70001 1.5 7.70001C0.673 7.70001 0 8.37301 0 9.20001Z" fill="black"/>
<path d="M0 16.2C0 17.027 0.673 17.7 1.5 17.7C2.327 17.7 3 17.027 3 16.2C3 15.373 2.327 14.7 1.5 14.7C0.673 14.7 0 15.373 0 16.2Z" fill="black"/>
</svg>
