<svg width="24" height="24" viewBox="0 0 24 24" fill="none" xmlns="http://www.w3.org/2000/svg">
<path fill-rule="evenodd" clip-rule="evenodd" d="M21 6.75V21C21 21.7956 20.6839 22.5587 20.1213 23.1213C19.5587 23.6839 18.7956 24 18 24H16.5V22.5H18C18.3978 22.5 18.7794 22.342 19.0607 22.0607C19.342 21.7794 19.5 21.3978 19.5 21V6.75H16.5C15.9033 6.75 15.331 6.51295 14.909 6.09099C14.4871 5.66903 14.25 5.09674 14.25 4.5V1.5H6C5.60218 1.5 5.22064 1.65804 4.93934 1.93934C4.65804 2.22064 4.5 2.60218 4.5 3V16.5H3V3C3 2.20435 3.31607 1.44129 3.87868 0.87868C4.44129 0.316071 5.20435 0 6 0L14.25 0L21 6.75ZM2.4 17.775H0V23.7735H1.1865V21.7605H2.391C2.8215 21.7605 3.1875 21.675 3.489 21.501C3.7935 21.3255 4.026 21.0885 4.1835 20.79C4.34698 20.4768 4.42997 20.1278 4.425 19.7745C4.425 19.3995 4.3455 19.0605 4.188 18.759C4.03134 18.4593 3.79183 18.2109 3.498 18.0435C3.198 17.8635 2.8335 17.775 2.4 17.775ZM3.2175 19.7745C3.22291 19.9721 3.17909 20.168 3.09 20.3445C3.01007 20.4982 2.88565 20.6242 2.733 20.706C2.55838 20.7924 2.36524 20.8346 2.1705 20.829H1.182V18.72H2.172C2.499 18.72 2.7555 18.81 2.94 18.9915C3.1245 19.1745 3.2175 19.4355 3.2175 19.7745ZM7.443 17.775H5.043V23.7735H6.2295V21.7605H7.434C7.8645 21.7605 8.2305 21.675 8.532 21.501C8.8365 21.3255 9.069 21.0885 9.2265 20.79C9.3885 20.4885 9.468 20.1495 9.468 19.7745C9.468 19.3995 9.39 19.0605 9.231 18.759C9.07434 18.4593 8.83483 18.2109 8.541 18.0435C8.241 17.8635 7.8765 17.775 7.443 17.775ZM8.2605 19.7745C8.26591 19.9721 8.22209 20.168 8.133 20.3445C8.05307 20.4982 7.92865 20.6242 7.776 20.706C7.6014 20.7924 7.40824 20.8347 7.2135 20.829H6.225V18.72H7.215C7.542 18.72 7.7985 18.81 7.983 18.9915C8.1675 19.1745 8.2605 19.4355 8.2605 19.7745ZM12.411 18.7695V23.7735H11.22V18.768H9.519V17.775H14.1165V18.768L12.411 18.7695Z" fill="#C13B1B"/>
</svg>
