<svg width="25" height="25" viewBox="0 0 25 25" fill="none" xmlns="http://www.w3.org/2000/svg">
<path d="M10.8636 3.70001C9.40722 3.70001 7.98354 4.13188 6.7726 4.941C5.56167 5.75012 4.61786 6.90016 4.06052 8.24568C3.50319 9.5912 3.35737 11.0718 3.64149 12.5002C3.92562 13.9286 4.62693 15.2406 5.65675 16.2705C6.68657 17.3003 7.99863 18.0016 9.42703 18.2857C10.8554 18.5698 12.336 18.424 13.6815 17.8667C15.027 17.3093 16.1771 16.3655 16.9862 15.1546C17.7953 13.9437 18.2272 12.52 18.2272 11.0636C18.2271 9.1107 17.4512 7.23781 16.0703 5.8569C14.6894 4.47598 12.8165 3.70014 10.8636 3.70001Z" stroke="#124B9E" stroke-width="1.5" stroke-miterlimit="10"/>
<path d="M16.3573 16.5573L21.5 21.7" stroke="#124B9E" stroke-width="1.5" stroke-miterlimit="10" stroke-linecap="round"/>
</svg>
